<svg width="168" height="62.5" xmlns="http://www.w3.org/2000/svg">
 <style type="text/css">.st0{fill:#E8000D;}
	.st1{fill:#FFFFFF;}</style>

 <g>
  <title>background</title>
  <rect fill="none" id="canvas_background" height="64.5" width="170" y="-1" x="-1"/>
 </g>
 <g>
  <title>Layer 1</title>
  <path stroke="null" id="svg_1" d="m155.720302,62.666666l-143.140683,0c-7.010452,0 -12.746276,-2.807467 -12.746276,-6.216534l0,-50.133336c0,-3.509333 5.735824,-6.3168 12.746276,-6.3168l143.140683,0l12.746276,0l0,62.666669l-12.746276,0z" class="st0"/>
  <g stroke="null" id="svg_2">
   <g stroke="null" id="svg_3">
    <path stroke="null" id="svg_4" d="m28.827914,15.261836c-1.453568,1.372814 -8.559899,8.398391 -10.09422,10.09422l13.405124,14.454923l5.410502,5.895025c1.857337,1.776583 4.118442,3.714673 6.460301,4.602964c1.372814,0.565276 2.58412,0.888291 3.149397,0.888291c0.323015,0 0.64603,0.080754 0.64603,0.403769c0,0.323015 -0.242261,0.484523 -1.130553,0.484523l-4.037688,0c-1.372814,0 -2.261105,0 -3.23015,-0.080754c-2.503367,-0.242261 -3.795427,-1.29206 -5.814271,-3.068643l-18.492611,-20.269194l-0.484523,-0.726784l-0.242261,0l0,4.279949c0,4.279949 0,7.994622 0.161508,10.013466c0.080754,1.29206 0.484523,2.341859 1.695829,2.503367c0.64603,0.080754 1.695829,0.161508 2.261105,0.161508c0.403769,0 0.64603,0.161508 0.64603,0.403769c0,0.323015 -0.403769,0.484523 -0.888291,0.484523c-2.58412,0 -5.57201,-0.161508 -6.783316,-0.161508c-1.049799,0 -4.037688,0.161508 -5.895025,0.161508c-0.64603,0 -0.969045,-0.161508 -0.969045,-0.484523c0,-0.242261 0.161508,-0.403769 0.726784,-0.403769c0.726784,0 1.29206,-0.080754 1.695829,-0.161508c0.969045,-0.161508 1.130553,-1.211306 1.372814,-2.58412c0.242261,-1.93809 0.242261,-5.652763 0.242261,-9.932713l0,-8.236884c0,-7.106331 0,-8.398391 -0.080754,-9.932713c-0.080754,-1.615075 -0.484523,-2.341859 -2.018844,-2.664874c-0.403769,-0.080754 -1.130553,-0.161508 -1.857337,-0.161508c-0.484523,0 -0.807538,-0.080754 -0.807538,-0.403769c0,-0.323015 0.323015,-0.403769 1.049799,-0.403769c2.503367,0 5.410502,0.161508 6.541055,0.161508c1.130553,0 4.037688,-0.161508 5.652763,-0.161508c0.64603,0 0.969045,0.080754 0.969045,0.403769c0,0.323015 -0.242261,0.403769 -0.64603,0.403769c-0.484523,0 -0.726784,0.080754 -1.29206,0.161508c-1.29206,0.242261 -1.615075,1.049799 -1.695829,2.664874c-0.080754,1.534321 -0.080754,2.826382 -0.080754,9.932713l0,2.099598l0.242261,0c1.615075,-1.695829 8.398391,-8.721406 9.771205,-10.336481c1.29206,-1.534321 2.341859,-2.745628 2.341859,-3.472412c0,-0.484523 -0.161508,-0.807538 -0.64603,-0.969045c-0.403769,-0.080754 -0.64603,-0.161508 -0.64603,-0.484523c0,-0.323015 0.242261,-0.403769 0.726784,-0.403769c0.969045,0 3.553166,0.161508 4.845226,0.161508l8.963668,0c1.130553,0 4.037688,-0.161508 5.733517,-0.161508c0.726784,0 1.049799,0.080754 1.049799,0.403769c0,0.323015 -0.242261,0.403769 -0.726784,0.403769c-0.484523,0 -0.807538,0.080754 -1.372814,0.161508c-1.29206,0.242261 -1.615075,1.049799 -1.695829,2.664874c-0.080754,1.534321 -0.080754,2.826382 -0.080754,9.932713l0,6.541055c0,6.783316 1.372814,9.609698 3.633919,11.467034c2.099598,1.695829 4.279949,1.93809 5.814271,1.93809c2.018844,0 4.602964,-0.64603 6.460301,-2.503367c2.58412,-2.58412 2.745628,-6.783316 2.745628,-11.547788l0,-5.814271c0,-7.106331 0,-8.398391 -0.080754,-9.932713c-0.080754,-1.615075 -0.484523,-2.341859 -2.018844,-2.664874c-0.403769,-0.080754 -1.130553,-0.161508 -1.695829,-0.161508c-0.484523,0 -0.807538,-0.080754 -0.807538,-0.403769c0,-0.323015 0.323015,-0.403769 0.969045,-0.403769c2.422613,0 5.329748,0.161508 5.410502,0.161508c0.565276,0 3.472412,-0.161508 5.329748,-0.161508c0.64603,0 0.969045,0.080754 0.969045,0.403769c0,0.323015 -0.242261,0.403769 -0.807538,0.403769c-0.484523,0 -0.807538,0.080754 -1.372814,0.161508c-1.29206,0.242261 -1.615075,1.049799 -1.695829,2.664874c-0.080754,1.534321 -0.080754,2.826382 -0.080754,9.932713l0,5.006733c0,5.168241 -0.484523,10.659497 -4.441457,14.051155c-3.310904,2.826382 -6.702562,3.391658 -9.690451,3.391658c-2.503367,0 -6.944823,-0.161508 -10.336481,-3.23015c-2.422613,-2.180352 -4.118442,-5.57201 -4.118442,-12.355326l0,-6.783316c0,-7.106331 0,-8.398391 -0.080754,-9.932713c-0.080754,-1.615075 -0.565276,-2.664874 -2.018844,-2.664874c-1.695829,-0.161508 -3.795427,1.453568 -6.137286,3.714673z" class="st1"/>
   </g>
   <g stroke="null" id="svg_5">
    <path stroke="null" id="svg_6" d="m64.35957,43.687161c0.64603,0 1.211306,0.565276 1.211306,1.29206c0,0.726784 -0.565276,1.29206 -1.211306,1.29206c-0.64603,0 -1.211306,-0.565276 -1.211306,-1.29206c-0.080754,-0.726784 0.484523,-1.29206 1.211306,-1.29206l0,0zm0,0.242261c-0.565276,0 -0.969045,0.484523 -0.969045,1.049799c0,0.565276 0.484523,1.049799 0.969045,1.049799c0.565276,0 0.969045,-0.484523 0.969045,-1.049799c0,-0.64603 -0.403769,-1.049799 -0.969045,-1.049799l0,0zm-0.242261,1.776583l-0.242261,0l0,-1.372814c0.080754,0 0.242261,0 0.403769,0c0.242261,0 0.323015,0.080754 0.403769,0.080754c0.080754,0.080754 0.161508,0.161508 0.161508,0.323015c0,0.161508 -0.161508,0.323015 -0.242261,0.323015l0,0c0.161508,0 0.242261,0.161508 0.242261,0.323015c0,0.242261 0.080754,0.323015 0.080754,0.323015l-0.242261,0c0,-0.080754 -0.080754,-0.161508 -0.080754,-0.323015c0,-0.161508 -0.161508,-0.242261 -0.323015,-0.242261l-0.161508,0l0,0.565276zm0,-0.807538l0.161508,0c0.161508,0 0.323015,-0.080754 0.323015,-0.242261c0,-0.161508 -0.080754,-0.242261 -0.323015,-0.242261c-0.080754,0 -0.161508,0 -0.161508,0l0,0.484523z" class="st1"/>
   </g>
  </g>
  <text stroke="null" font-weight="normal" xml:space="preserve" text-anchor="start" font-family="'Palatino Linotype', 'Book Antiqua', Palatino, serif" font-size="19" id="svg_7" y="26.534069" x="71.628848" stroke-opacity="null" stroke-width="0" fill="#ffffff">MEDICAL</text>
  <text font-weight="normal" xml:space="preserve" text-anchor="start" font-family="'Palatino Linotype', 'Book Antiqua', Palatino, serif" font-size="19" id="svg_8" y="48.617457" x="71.628848" stroke-opacity="null" stroke-width="0" stroke="null" fill="#ffffff">CENTER</text>
 </g>
</svg>